<?xml version="1.0" standalone="no"?>
<!DOCTYPE svg PUBLIC "-//W3C//DTD SVG 20010904//EN"
 "http://www.w3.org/TR/2001/REC-SVG-20010904/DTD/svg10.dtd">
<svg version="1.0" xmlns="http://www.w3.org/2000/svg"
 width="700.000000pt" height="700.000000pt" viewBox="0 0 700.000000 700.000000"
 preserveAspectRatio="xMidYMid meet">
<metadata>
Created by potrace 1.14, written by Peter Selinger 2001-2017
</metadata>
<g transform="translate(0.000000,700.000000) scale(0.100000,-0.100000)"
fill="#000000" stroke="none">
<path d="M1105 5112 c-22 -1 -83 -9 -135 -18 -282 -48 -540 -204 -715 -429
-121 -157 -182 -287 -231 -490 -22 -94 -27 -332 -8 -446 64 -400 341 -748 718
-901 61 -25 133 -47 251 -74 17 -4 307 -9 645 -11 599 -4 616 -3 647 16 93 58
95 187 5 243 l-36 22 -586 2 c-637 1 -652 2 -804 61 -112 42 -202 101 -296
193 -94 92 -129 139 -180 240 -98 195 -119 396 -66 651 15 71 88 218 148 297
126 167 296 280 501 335 l82 22 2455 0 2455 0 85 -23 c397 -105 669 -451 673
-857 2 -163 -23 -282 -88 -414 -132 -270 -369 -445 -675 -497 -25 -4 -452 -8
-950 -9 -771 -1 -909 -3 -935 -15 -19 -10 -82 -86 -175 -211 -80 -108 -153
-207 -163 -220 -9 -13 -64 -88 -122 -167 l-104 -143 -118 159 c-65 88 -185
251 -267 362 -123 167 -156 205 -189 220 -93 42 -197 -27 -197 -131 0 -38 26
-82 132 -226 472 -640 544 -736 570 -749 36 -19 88 -21 127 -4 35 14 56 41
515 669 50 68 100 134 111 147 l20 24 890 3 c490 2 904 6 920 10 17 4 37 10
45 12 8 2 29 7 47 10 107 18 300 110 418 201 245 186 397 429 456 729 24 120
17 416 -11 490 -5 14 -7 25 -5 25 2 0 -9 39 -26 88 -151 429 -491 716 -939
793 -59 10 -575 13 -2465 13 -1314 1 -2408 0 -2430 -2z"/>
<path d="M2031 4354 c-70 -19 -145 -64 -199 -121 -92 -97 -127 -197 -119 -336
4 -75 10 -99 41 -161 60 -122 173 -213 297 -241 147 -34 304 12 412 118 181
178 174 469 -16 644 -108 99 -268 137 -416 97z m166 -276 c95 -23 142 -139 92
-227 -30 -53 -65 -74 -129 -79 -45 -3 -61 0 -89 20 -56 38 -75 72 -75 131 0
66 30 118 83 144 46 23 61 24 118 11z"/>
<path d="M3354 4346 c-307 -112 -397 -494 -171 -727 92 -95 208 -140 343 -133
229 10 408 196 418 431 7 196 -142 394 -332 439 -81 20 -187 16 -258 -10z
m231 -286 c17 -10 41 -38 54 -60 56 -101 -20 -230 -136 -230 -101 0 -174 84
-159 184 17 110 144 166 241 106z"/>
<path d="M4720 4351 c-75 -24 -107 -42 -163 -91 -295 -260 -131 -749 262 -775
241 -16 452 166 468 403 5 75 4 85 -18 116 -32 47 -85 70 -138 61 -71 -12
-113 -59 -124 -140 -8 -65 -24 -92 -69 -126 -38 -27 -49 -30 -98 -27 -58 4
-91 22 -125 67 -30 39 -28 135 4 180 26 37 90 70 134 71 71 0 137 68 137 140
0 46 -36 104 -76 124 -45 21 -124 20 -194 -3z"/>
</g>
</svg>
