<?xml version="1.0" encoding="UTF-8"?>
<svg xmlns="http://www.w3.org/2000/svg" width="50" height="50"
    xmlns:xlink="http://www.w3.org/1999/xlink" version="1.1" id="Capa_1" x="0px" y="0px" viewBox="0 0 368.554 368.554" style="enable-background:new 0 0 368.554 368.554;" xml:space="preserve">
    <g>
        <path d="M306.604,99.288H61.95c-34.16,0-61.95,27.791-61.95,61.95v1.1c0,34.159,27.791,61.95,61.95,61.95h54.327   c4.142,0,7.5-3.358,7.5-7.5s-3.358-7.5-7.5-7.5H61.95c-25.888,0-46.95-21.062-46.95-46.95v-1.1c0-25.888,21.062-46.95,46.95-46.95   h244.653c25.888,0,46.95,21.062,46.95,46.95v1.1c0,25.888-21.062,46.95-46.95,46.95h-89.208c-2.384,0-4.626,1.133-6.04,3.053   l-27.079,36.776l-27.079-36.776c-2.456-3.335-7.151-4.047-10.487-1.592c-3.335,2.456-4.048,7.151-1.592,10.486l33.119,44.978   c1.414,1.919,3.656,3.053,6.04,3.053s4.626-1.133,6.04-3.053l30.871-41.925h85.417c34.16,0,61.95-27.791,61.95-61.95v-1.1   C368.554,127.079,340.763,99.288,306.604,99.288z"></path>
        <path d="M113.281,138.366c-12.915,0-23.422,10.507-23.422,23.423c0,12.915,10.507,23.422,23.422,23.422   c12.916,0,23.423-10.507,23.423-23.422C136.704,148.873,126.196,138.366,113.281,138.366z M113.281,170.211   c-4.644,0-8.422-3.778-8.422-8.422c0-4.645,3.778-8.423,8.422-8.423c4.645,0,8.423,3.778,8.423,8.423   C121.704,166.433,117.925,170.211,113.281,170.211z"></path>
        <path d="M207.699,161.789c0-12.916-10.507-23.423-23.422-23.423s-23.422,10.507-23.422,23.423   c0,12.915,10.507,23.422,23.422,23.422S207.699,174.704,207.699,161.789z M175.854,161.789c0-4.645,3.778-8.423,8.422-8.423   s8.422,3.778,8.422,8.423c0,4.644-3.778,8.422-8.422,8.422S175.854,166.433,175.854,161.789z"></path>
        <path d="M255.273,153.366c4.142,0,7.5-3.358,7.5-7.5s-3.358-7.5-7.5-7.5c-12.916,0-23.423,10.507-23.423,23.423   c0,12.915,10.507,23.422,23.423,23.422c12.915,0,23.422-10.507,23.422-23.422c0-4.142-3.358-7.5-7.5-7.5s-7.5,3.358-7.5,7.5   c0,4.644-3.778,8.422-8.422,8.422c-4.645,0-8.423-3.778-8.423-8.422C246.85,157.144,250.628,153.366,255.273,153.366z"></path>
    </g>
</svg>