<?xml version="1.0" encoding="UTF-8"?>
<svg xmlns="http://www.w3.org/2000/svg" xmlns:xlink="http://www.w3.org/1999/xlink" width="450pt" height="149.999998pt" viewBox="0 0 450 149.999998" version="1.2">
<defs>
<clipPath id="clip1">
  <path d="M 239 27.996094 L 246 27.996094 L 246 35 L 239 35 Z M 239 27.996094 "/>
</clipPath>
<clipPath id="clip2">
  <path d="M 192.761719 29.589844 L 257.230469 29.589844 L 257.230469 121.503906 L 192.761719 121.503906 Z M 192.761719 29.589844 "/>
</clipPath>
</defs>
<g id="surface1">
<rect x="0" y="0" width="450" height="149.999998" style="fill:rgb(100%,100%,100%);fill-opacity:1;stroke:none;"/>
<rect x="0" y="0" width="450" height="149.999998" style="fill:rgb(100%,100%,100%);fill-opacity:1;stroke:none;"/>
<rect x="0" y="0" width="450" height="149.999998" style="fill:rgb(100%,34.118652%,34.118652%);fill-opacity:1;stroke:none;"/>
<g clip-path="url(#clip1)" clip-rule="nonzero">
<path style=" stroke:none;fill-rule:evenodd;fill:rgb(0%,0%,0%);fill-opacity:1;" d="M 240.957031 33.515625 C 242.328125 32.707031 243.394531 31.597656 244.609375 30.628906 C 244.320312 29.75 243.355469 29.539062 242.847656 28.875 C 241.980469 30.1875 241.574219 31.957031 240.957031 33.515625 Z M 245.492188 30.757812 C 245.398438 31.449219 243.8125 32.464844 243.097656 33.011719 C 242 33.855469 241.019531 34.632812 240.199219 34.894531 C 239.503906 33.863281 240.378906 32.511719 240.828125 31.382812 C 241.300781 30.203125 241.660156 28.742188 242.46875 27.996094 C 243.734375 28.566406 245.679688 29.394531 245.492188 30.757812 "/>
</g>
<path style=" stroke:none;fill-rule:evenodd;fill:rgb(0%,0%,0%);fill-opacity:1;" d="M 199.738281 29.628906 C 199.195312 29.796875 198.949219 30.261719 198.480469 30.507812 C 199.003906 31.277344 200.160156 31.425781 200.496094 32.386719 C 200.644531 31.566406 199.957031 30.5 199.738281 29.628906 Z M 199.363281 32.261719 C 198.820312 31.714844 197.699219 31.410156 197.722656 30.507812 C 197.746094 29.722656 199.128906 28.605469 199.867188 28.75 C 200.910156 28.957031 201.5625 32.886719 201.503906 33.890625 C 200.15625 34.105469 200.082031 32.992188 199.363281 32.261719 "/>
<path style=" stroke:none;fill-rule:evenodd;fill:rgb(19.999695%,19.60907%,26.669312%);fill-opacity:1;" d="M 240.957031 33.515625 C 242.328125 32.707031 243.394531 31.597656 244.609375 30.628906 C 244.320312 29.75 243.355469 29.539062 242.847656 28.875 C 241.980469 30.1875 241.574219 31.957031 240.957031 33.515625 "/>
<path style=" stroke:none;fill-rule:evenodd;fill:rgb(19.999695%,19.60907%,26.669312%);fill-opacity:1;" d="M 199.738281 29.628906 C 199.195312 29.796875 198.949219 30.261719 198.480469 30.507812 C 199.003906 31.277344 200.160156 31.425781 200.496094 32.386719 C 200.644531 31.566406 199.957031 30.5 199.738281 29.628906 "/>
<g clip-path="url(#clip2)" clip-rule="nonzero">
<path style=" stroke:none;fill-rule:evenodd;fill:rgb(0%,0%,0%);fill-opacity:1;" d="M 208.6875 107.742188 C 208.835938 110.296875 208.496094 113.105469 208.6875 115.640625 C 208.816406 117.335938 209.640625 118.859375 209.066406 120.027344 C 210.367188 120.148438 211.113281 119.722656 211.839844 119.277344 C 212.398438 116.738281 212.980469 114.226562 213.351562 111.5 C 213.214844 110.882812 211.847656 112.027344 211.714844 111.125 C 212.511719 109.921875 214.347656 110.273438 215.746094 110.121094 C 221.929688 109.453125 229.675781 109.355469 235.410156 110.875 C 235.519531 112.023438 234.125 111.101562 233.769531 111.375 C 234.101562 114.183594 234.734375 116.6875 235.285156 119.277344 C 236.011719 119.722656 236.757812 120.148438 238.054688 120.027344 C 238.359375 119.6875 237.667969 119.582031 237.804688 119.023438 C 238.695312 116.066406 238.390625 111.917969 238.433594 108.117188 C 229.867188 106.492188 217.59375 106.097656 208.6875 107.742188 Z M 209.824219 97.582031 C 209.253906 100.359375 209.050781 103.503906 208.816406 106.613281 C 217.570312 105.070312 230.074219 105.4375 238.183594 107.238281 C 238.335938 104.117188 237.820312 100.578125 237.300781 97.710938 C 240.425781 94.382812 243.703125 91.207031 243.601562 84.671875 C 242.34375 85.085938 240.441406 84.75 239.066406 84.542969 C 238.726562 87.136719 237.980469 89.316406 237.046875 91.316406 C 233.867188 94.09375 227.25 94.75 220.789062 94.949219 C 217.28125 95.058594 212.242188 94.625 210.832031 92.820312 C 209.25 90.792969 208.679688 87.492188 208.058594 84.417969 C 206.476562 84.40625 204.742188 84.542969 203.648438 84.042969 C 203.066406 90.679688 206.523438 94.390625 209.824219 97.582031 Z M 203.648438 83.039062 C 204.878906 83.402344 206.285156 83.59375 207.933594 83.542969 C 208.097656 81.066406 207.828125 78.671875 205.914062 78.902344 C 204.355469 79.089844 204.054688 81.390625 203.648438 83.039062 Z M 239.191406 83.667969 C 240.507812 83.851562 242.398438 83.734375 243.476562 83.792969 C 243.480469 81.871094 242.605469 78.34375 240.453125 78.902344 C 239.050781 79.265625 239.175781 81.613281 239.191406 83.667969 Z M 251.164062 77.648438 C 250.503906 77.496094 249.378906 77.960938 248.265625 77.773438 C 248.21875 79.445312 247.355469 80.953125 247.382812 82.289062 C 247.996094 81.808594 248.03125 80.757812 248.644531 80.28125 C 249.097656 80.371094 248.777344 81.238281 249.023438 81.535156 C 249.832031 80.335938 250.476562 78.96875 251.164062 77.648438 Z M 195.078125 72.257812 C 195.789062 72.257812 196.503906 72.257812 197.21875 72.257812 C 197.0625 71.746094 196.28125 71.851562 196.210938 71.253906 C 197.363281 71.03125 198.171875 72.230469 198.730469 73.007812 C 199.679688 72.339844 199.742188 71.484375 199.613281 69.875 C 198.445312 69.03125 197.183594 68.28125 194.949219 68.496094 C 193.523438 69.128906 193.832031 71.667969 195.078125 72.257812 Z M 207.808594 55.832031 C 204.164062 59.984375 200.40625 64.683594 200.246094 71.882812 C 198.492188 74.566406 196.804688 79.390625 198.355469 83.289062 C 199.316406 85.710938 201.597656 87.722656 203.269531 89.058594 C 202.359375 86.03125 202.34375 79.398438 204.90625 78.277344 C 206.511719 77.574219 208.195312 78.464844 208.6875 79.90625 C 209.140625 81.230469 208.84375 82.710938 208.941406 84.167969 C 209.167969 87.546875 210.597656 90.25 211.585938 92.570312 C 218.769531 94.480469 229.695312 94.570312 235.660156 91.566406 C 236.203125 90.324219 237.324219 89.046875 237.804688 87.554688 C 238.324219 85.933594 237.902344 84.042969 238.183594 82.164062 C 238.363281 80.929688 239.375 79.746094 239.316406 78.527344 C 243.113281 76.441406 244.53125 81.195312 244.105469 85.296875 C 244.71875 85.480469 245.269531 84.191406 245.746094 83.417969 C 246.761719 81.761719 247.507812 79.640625 247.886719 77.148438 C 250.40625 77.070312 253.929688 76.058594 255.199219 74.261719 C 256.824219 71.957031 255.351562 69.722656 252.425781 70 C 251.316406 70.105469 249.875 70.660156 248.894531 71.253906 C 246.699219 72.585938 245.988281 75.152344 242.972656 74.136719 C 241.265625 70.65625 241.640625 65.359375 242.972656 61.726562 C 241.929688 60.496094 241.816406 57.703125 242.71875 56.207031 C 238.34375 52.050781 231.605469 56.425781 225.324219 57.210938 C 219.441406 57.945312 212.546875 57.722656 207.808594 55.832031 Z M 203.015625 38.40625 C 202.917969 38.882812 203.613281 38.5625 203.898438 38.65625 C 200.242188 40.828125 198.003906 43.023438 198.480469 48.8125 C 198.835938 53.109375 201.621094 57.289062 204.53125 58.714844 C 205.359375 57.621094 206.132812 56.464844 207.300781 55.707031 C 204.78125 53.398438 201.992188 50.472656 202.132812 45.425781 C 202.226562 42.191406 204.351562 38.34375 207.554688 38.90625 C 208.851562 39.132812 209.917969 40.351562 209.695312 42.164062 C 208.882812 41.09375 208.890625 39.679688 207.175781 39.53125 C 203.453125 39.214844 202.007812 45.730469 203.394531 49.4375 C 204.34375 51.976562 206.929688 55.167969 209.824219 55.957031 C 212.382812 56.65625 214.8125 56.710938 217.511719 56.835938 C 221.960938 57.042969 225.933594 56.445312 229.359375 55.582031 C 233.332031 54.582031 239.871094 52.054688 242.847656 55.582031 C 243.46875 54.488281 243.628906 52.933594 243.730469 51.320312 C 245.164062 54.585938 241.464844 57.640625 243.097656 60.722656 C 243.695312 59.8125 243.765625 58.378906 244.609375 57.714844 C 243.660156 62.449219 240.753906 68.777344 243.351562 73.636719 C 245.871094 73.769531 246.691406 71.414062 248.265625 70.375 C 249.476562 69.578125 251.148438 69.746094 252.675781 69.246094 C 252.675781 68.871094 252.675781 68.496094 252.675781 68.121094 C 252.453125 67.507812 252.175781 68.824219 251.542969 68.621094 C 252.867188 67.171875 253.835938 64.347656 252.425781 62.226562 C 251.601562 62.953125 251.207031 64.109375 250.28125 64.734375 C 251.148438 62.613281 253.613281 60.414062 253.308594 57.335938 C 253.09375 55.210938 251.976562 53.566406 250.660156 52.195312 C 250.324219 52.40625 250.730469 53.351562 250.410156 53.574219 C 249.777344 51.359375 249.195312 49.097656 246.753906 48.6875 C 246.558594 49.105469 247.023438 49.796875 246.878906 50.566406 C 245.832031 49.796875 246.058594 48.042969 245.367188 46.804688 C 244.316406 44.921875 242.671875 43.953125 240.074219 43.546875 C 240.070312 43.042969 240.730469 43.195312 241.207031 43.167969 C 240.050781 40.949219 236.601562 41.585938 234.402344 42.417969 C 234.683594 41.652344 235.625 41.542969 236.292969 41.164062 C 235.238281 35.277344 224.726562 32.640625 219.402344 36.273438 C 219.097656 37.433594 218.761719 38.558594 217.636719 38.90625 C 217.804688 37.949219 218.855469 37.304688 218.898438 36.023438 C 218.957031 34.355469 217.644531 32.558594 216.628906 31.882812 C 215.160156 30.90625 212.765625 30.636719 210.578125 31.132812 C 206.953125 31.953125 203.671875 35.523438 203.015625 38.40625 Z M 199.109375 40.785156 C 199.851562 39.839844 200.960938 39.164062 202.007812 38.40625 C 202.472656 34.644531 206.242188 30.753906 210.203125 29.878906 C 215.324219 28.746094 218.800781 31.203125 220.03125 34.515625 C 226.359375 31.605469 235.882812 34.515625 237.300781 40.285156 C 240.410156 39.71875 240.941406 41.664062 242.59375 42.667969 C 242.964844 42.894531 243.429688 42.972656 243.730469 43.167969 C 245.316406 44.230469 246.617188 46.074219 247.132812 47.683594 C 249.234375 47.972656 250.199219 49.394531 250.914062 51.066406 C 253.816406 52.476562 255.679688 58.128906 253.433594 61.601562 C 254.839844 63.40625 254.109375 66.308594 253.8125 68.746094 C 255.5625 68.8125 256.523438 69.582031 256.960938 70.753906 C 258.214844 74.082031 254.789062 76.914062 252.300781 77.648438 C 251.816406 79.675781 250.765625 81.140625 249.652344 82.539062 C 248.503906 82.648438 248.46875 83.871094 247.003906 83.667969 C 246.734375 84.964844 245.269531 85.566406 244.863281 86.675781 C 244.519531 87.609375 244.550781 88.785156 244.230469 89.8125 C 243.472656 92.273438 242.558594 93.707031 241.082031 95.703125 C 240.285156 96.78125 238.824219 97.789062 238.6875 98.585938 C 238.5 99.679688 239.164062 101.589844 239.316406 103.101562 C 239.882812 108.679688 239.886719 115.128906 239.570312 120.402344 C 238.5 122.386719 234.601562 121.410156 234.023438 119.652344 C 233.292969 117.035156 232.78125 114.199219 232.257812 111.375 C 226.753906 110.757812 220.074219 110.636719 214.738281 111.5 C 214.449219 114.515625 213.703125 117.074219 213.101562 119.777344 C 212.375 121.371094 208.621094 122.394531 207.554688 120.402344 C 207.707031 117.964844 207.300781 116.054688 207.300781 113.507812 C 207.300781 109.953125 207.445312 106.832031 207.808594 103.226562 C 207.960938 101.695312 208.648438 99.460938 208.4375 98.460938 C 208.253906 97.601562 206.605469 96.570312 206.042969 95.828125 C 204.824219 94.222656 203.890625 92.597656 203.269531 90.6875 C 200.828125 88.644531 197.296875 85.921875 196.714844 81.785156 C 196.316406 78.945312 196.675781 75.621094 197.472656 73.511719 C 193.96875 73.945312 192.464844 72.386719 192.808594 68.996094 C 193.429688 66.679688 197.746094 66.9375 199.363281 68.246094 C 200 64.617188 201.640625 61.984375 203.269531 59.34375 C 198.386719 56.980469 194.789062 46.289062 199.109375 40.785156 "/>
</g>
<path style=" stroke:none;fill-rule:evenodd;fill:rgb(19.999695%,19.60907%,26.669312%);fill-opacity:1;" d="M 248.769531 52.195312 C 248.644531 54.242188 248.457031 56.230469 247.761719 57.714844 C 248.796875 57.046875 249.289062 54.082031 248.769531 52.195312 Z M 211.839844 50.066406 C 212.023438 51.347656 213.699219 51.515625 214.863281 51.820312 C 216.851562 52.339844 219.046875 52.707031 221.796875 52.574219 C 218.339844 51.875 214.363281 51.695312 211.839844 50.066406 Z M 202.007812 49.6875 C 201.804688 49.652344 201.792969 49.808594 201.628906 49.8125 C 202.355469 51.726562 203.324219 53.394531 204.90625 54.453125 C 203.90625 52.902344 202.6875 51.566406 202.007812 49.6875 Z M 236.542969 44.421875 C 234.683594 44.078125 232.460938 44.457031 230.996094 44.925781 C 232.628906 45.039062 234.753906 44.5625 236.542969 44.421875 Z M 210.578125 44.421875 C 210.460938 44.332031 210.386719 44.195312 210.328125 44.046875 C 210.0625 45.097656 209.476562 46.148438 207.933594 45.550781 C 209.929688 47.484375 210.648438 43.648438 213.101562 44.046875 C 212.433594 43.414062 211.015625 44.011719 210.578125 44.421875 Z M 231.125 42.542969 C 229.882812 42.519531 228.128906 43.074219 226.585938 43.167969 C 228.113281 43.472656 229.960938 43.015625 231.125 42.542969 Z M 220.410156 40.035156 C 219.675781 41.140625 218.277344 41.589844 217.386719 42.542969 C 218.71875 42.027344 220.125 41.589844 220.410156 40.035156 Z M 209.066406 36.648438 C 209.867188 37.480469 210.710938 38.273438 211.335938 39.28125 C 211.5 37.929688 210.46875 36.84375 209.066406 36.648438 Z M 210.578125 31.132812 C 212.765625 30.636719 215.160156 30.90625 216.628906 31.886719 C 217.644531 32.558594 218.957031 34.351562 218.898438 36.023438 C 218.855469 37.304688 217.804688 37.949219 217.636719 38.90625 C 218.761719 38.558594 219.097656 37.433594 219.402344 36.273438 C 224.726562 32.640625 235.238281 35.277344 236.292969 41.164062 C 235.625 41.546875 234.683594 41.652344 234.402344 42.417969 C 236.601562 41.585938 240.050781 40.949219 241.207031 43.167969 C 240.730469 43.195312 240.070312 43.042969 240.074219 43.546875 C 242.671875 43.953125 244.316406 44.921875 245.367188 46.804688 C 246.058594 48.042969 245.832031 49.796875 246.878906 50.566406 C 247.023438 49.796875 246.558594 49.105469 246.753906 48.6875 C 249.195312 49.097656 249.777344 51.359375 250.410156 53.574219 C 250.730469 53.351562 250.324219 52.40625 250.660156 52.195312 C 251.976562 53.566406 253.09375 55.210938 253.308594 57.335938 C 253.613281 60.414062 251.148438 62.613281 250.28125 64.734375 C 251.207031 64.109375 251.601562 62.953125 252.425781 62.226562 C 253.835938 64.347656 252.867188 67.171875 251.542969 68.621094 C 252.175781 68.824219 252.453125 67.507812 252.675781 68.121094 C 252.675781 68.496094 252.675781 68.871094 252.675781 69.25 C 251.148438 69.746094 249.476562 69.578125 248.265625 70.375 C 246.691406 71.414062 245.871094 73.769531 243.351562 73.636719 C 240.753906 68.777344 243.660156 62.449219 244.609375 57.714844 C 243.765625 58.378906 243.695312 59.8125 243.097656 60.722656 C 241.464844 57.640625 245.164062 54.585938 243.730469 51.320312 C 243.628906 52.933594 243.46875 54.488281 242.847656 55.582031 C 239.871094 52.054688 233.332031 54.582031 229.359375 55.582031 C 225.933594 56.445312 221.960938 57.042969 217.511719 56.835938 C 214.8125 56.710938 212.382812 56.65625 209.824219 55.957031 C 206.929688 55.167969 204.34375 51.976562 203.394531 49.4375 C 202.007812 45.730469 203.453125 39.214844 207.175781 39.53125 C 208.890625 39.679688 208.882812 41.09375 209.695312 42.164062 C 209.917969 40.351562 208.851562 39.132812 207.554688 38.90625 C 204.351562 38.34375 202.226562 42.191406 202.132812 45.425781 C 201.992188 50.472656 204.78125 53.398438 207.300781 55.707031 C 206.132812 56.464844 205.359375 57.621094 204.53125 58.714844 C 201.621094 57.289062 198.835938 53.109375 198.480469 48.8125 C 198.003906 43.023438 200.242188 40.828125 203.898438 38.65625 C 203.613281 38.5625 202.917969 38.882812 203.015625 38.40625 C 203.671875 35.523438 206.953125 31.953125 210.578125 31.132812 "/>
<path style=" stroke:none;fill-rule:evenodd;fill:rgb(0%,0%,0%);fill-opacity:1;" d="M 196.96875 34.140625 C 196.6875 34.15625 196.914062 34.671875 196.839844 34.894531 C 197.320312 34.824219 197.628906 34.589844 198.226562 34.644531 C 198.097656 34.1875 197.207031 34.488281 196.96875 34.140625 Z M 199.867188 35.144531 C 198.847656 35.496094 196.746094 36.257812 195.832031 35.519531 C 196.019531 34.832031 195.863281 33.796875 196.085938 33.140625 C 197.109375 33.566406 199.675781 33.480469 199.867188 35.144531 "/>
<path style=" stroke:none;fill-rule:evenodd;fill:rgb(19.999695%,19.60907%,26.669312%);fill-opacity:1;" d="M 196.96875 34.140625 C 196.6875 34.15625 196.914062 34.671875 196.839844 34.894531 C 197.320312 34.824219 197.628906 34.589844 198.226562 34.644531 C 198.097656 34.1875 197.207031 34.488281 196.96875 34.140625 "/>
<path style=" stroke:none;fill-rule:evenodd;fill:rgb(0%,0%,0%);fill-opacity:1;" d="M 247.886719 35.394531 C 247.226562 35.449219 246.996094 35.929688 246.5 36.148438 C 246.976562 36.34375 247.523438 36.46875 248.140625 36.523438 C 248.003906 36.199219 247.832031 35.910156 247.886719 35.394531 Z M 248.140625 34.390625 C 248.910156 34.648438 248.949219 36.386719 248.894531 37.402344 C 247.691406 37.359375 245.320312 37.46875 244.609375 36.523438 C 245.496094 36.15625 247.058594 34.03125 248.140625 34.390625 "/>
<path style=" stroke:none;fill-rule:evenodd;fill:rgb(19.999695%,19.60907%,26.669312%);fill-opacity:1;" d="M 247.886719 35.394531 C 247.226562 35.449219 246.996094 35.929688 246.5 36.148438 C 246.976562 36.34375 247.523438 36.46875 248.140625 36.523438 C 248.003906 36.199219 247.832031 35.910156 247.886719 35.394531 "/>
<path style=" stroke:none;fill-rule:evenodd;fill:rgb(0%,0%,0%);fill-opacity:1;" d="M 209.066406 36.648438 C 209.867188 37.480469 210.710938 38.273438 211.335938 39.28125 C 211.5 37.929688 210.46875 36.84375 209.066406 36.648438 "/>
<path style=" stroke:none;fill-rule:evenodd;fill:rgb(0%,0%,0%);fill-opacity:1;" d="M 220.410156 40.035156 C 219.675781 41.140625 218.277344 41.589844 217.386719 42.542969 C 218.71875 42.027344 220.125 41.589844 220.410156 40.035156 "/>
<path style=" stroke:none;fill-rule:evenodd;fill:rgb(0%,0%,0%);fill-opacity:1;" d="M 231.125 42.542969 C 229.882812 42.519531 228.128906 43.074219 226.585938 43.167969 C 228.113281 43.476562 229.960938 43.015625 231.125 42.542969 "/>
<path style=" stroke:none;fill-rule:evenodd;fill:rgb(0%,0%,0%);fill-opacity:1;" d="M 210.578125 44.421875 C 210.460938 44.332031 210.386719 44.195312 210.328125 44.046875 C 210.0625 45.097656 209.476562 46.148438 207.933594 45.550781 C 209.929688 47.484375 210.648438 43.648438 213.101562 44.046875 C 212.433594 43.414062 211.015625 44.011719 210.578125 44.421875 "/>
<path style=" stroke:none;fill-rule:evenodd;fill:rgb(0%,0%,0%);fill-opacity:1;" d="M 236.542969 44.421875 C 234.683594 44.078125 232.460938 44.457031 230.996094 44.925781 C 232.628906 45.039062 234.753906 44.5625 236.542969 44.421875 "/>
<path style=" stroke:none;fill-rule:evenodd;fill:rgb(0%,0%,0%);fill-opacity:1;" d="M 202.007812 49.6875 C 201.804688 49.652344 201.792969 49.808594 201.628906 49.816406 C 202.355469 51.726562 203.324219 53.394531 204.90625 54.453125 C 203.90625 52.902344 202.6875 51.566406 202.007812 49.6875 "/>
<path style=" stroke:none;fill-rule:evenodd;fill:rgb(0%,0%,0%);fill-opacity:1;" d="M 211.839844 50.066406 C 212.023438 51.347656 213.699219 51.515625 214.863281 51.820312 C 216.851562 52.339844 219.046875 52.707031 221.796875 52.574219 C 218.339844 51.875 214.363281 51.695312 211.839844 50.066406 "/>
<path style=" stroke:none;fill-rule:evenodd;fill:rgb(0%,0%,0%);fill-opacity:1;" d="M 248.769531 52.195312 C 248.644531 54.242188 248.457031 56.234375 247.761719 57.714844 C 248.796875 57.046875 249.289062 54.082031 248.769531 52.195312 "/>
<path style=" stroke:none;fill-rule:evenodd;fill:rgb(79.998779%,61.569214%,49.01886%);fill-opacity:1;" d="M 215.496094 75.894531 C 215.328125 75.9375 215.296875 76.113281 215.117188 76.144531 C 215.253906 76.96875 215.964844 77.222656 216.882812 77.273438 C 216.753906 80.519531 215.832031 85.226562 216.25 88.558594 C 216.433594 89.988281 217.328125 91.308594 218.773438 90.0625 C 220.046875 88.960938 220.605469 86.488281 221.167969 84.167969 C 221.730469 81.851562 222.464844 79.644531 222.554688 77.398438 C 222.898438 77.070312 223.753906 77.253906 223.8125 76.644531 C 221.566406 76.691406 217.199219 77.402344 215.496094 75.894531 Z M 247.636719 74.011719 C 247.515625 74.550781 248.253906 74.234375 248.265625 74.640625 C 248.292969 75.167969 247.703125 75.082031 247.507812 75.390625 C 247.84375 76.238281 248.769531 75.277344 248.894531 74.765625 C 248.796875 74.484375 248.824219 74.085938 248.515625 74.011719 C 249.304688 73.335938 250.710938 73.269531 251.667969 72.757812 C 250.347656 72.277344 248.398438 73.125 247.636719 74.011719 Z M 220.03125 62.855469 C 218.9375 61.875 218.617188 61.136719 217.636719 60.472656 C 212.132812 56.738281 204.539062 60.289062 204.027344 66.488281 C 203.535156 72.371094 209.808594 77.597656 216 75.015625 C 217.578125 74.355469 218.769531 73.109375 219.78125 71.628906 C 221.355469 73.914062 223.898438 76 227.21875 76.269531 C 232.257812 76.679688 236.847656 73.21875 237.300781 68.121094 C 238.011719 60.058594 227.941406 55.425781 221.796875 60.597656 C 221.035156 61.238281 220.761719 61.757812 220.03125 62.855469 Z M 225.324219 57.210938 C 231.605469 56.425781 238.34375 52.050781 242.71875 56.207031 C 241.816406 57.703125 241.929688 60.496094 242.972656 61.726562 C 241.640625 65.359375 241.265625 70.65625 242.972656 74.136719 C 245.988281 75.152344 246.699219 72.585938 248.894531 71.253906 C 249.875 70.660156 251.316406 70.105469 252.425781 70 C 255.351562 69.722656 256.824219 71.957031 255.199219 74.261719 C 253.929688 76.058594 250.402344 77.070312 247.886719 77.148438 C 247.507812 79.640625 246.761719 81.761719 245.746094 83.417969 C 245.269531 84.191406 244.71875 85.480469 244.105469 85.296875 C 244.53125 81.195312 243.113281 76.441406 239.316406 78.527344 C 239.375 79.746094 238.363281 80.929688 238.183594 82.160156 C 237.902344 84.042969 238.324219 85.933594 237.804688 87.554688 C 237.324219 89.046875 236.203125 90.324219 235.660156 91.566406 C 229.695312 94.570312 218.769531 94.480469 211.585938 92.570312 C 210.597656 90.25 209.167969 87.546875 208.941406 84.167969 C 208.84375 82.710938 209.140625 81.230469 208.6875 79.90625 C 208.195312 78.464844 206.511719 77.574219 204.90625 78.277344 C 202.34375 79.398438 202.359375 86.03125 203.269531 89.058594 C 201.597656 87.722656 199.316406 85.710938 198.355469 83.289062 C 196.804688 79.390625 198.492188 74.566406 200.246094 71.882812 C 200.40625 64.683594 204.164062 59.984375 207.808594 55.832031 C 212.546875 57.722656 219.441406 57.945312 225.324219 57.210938 "/>
<path style=" stroke:none;fill-rule:evenodd;fill:rgb(0%,0%,0%);fill-opacity:1;" d="M 219.65625 63.355469 C 217.441406 58.972656 210.183594 58.277344 206.671875 61.851562 C 201.859375 66.746094 206.042969 76.773438 214.488281 74.890625 C 214.851562 74.808594 215.707031 74.472656 216.125 74.261719 C 216.863281 73.890625 219.375 72.277344 219.527344 71.128906 C 219.628906 70.363281 218.882812 69.320312 218.773438 68.246094 C 218.570312 66.300781 219.101562 64.878906 219.65625 63.355469 Z M 228.855469 58.964844 C 223.800781 58.441406 219.316406 62.085938 219.277344 67.242188 C 219.234375 72.652344 223.820312 75.652344 227.847656 75.765625 C 232.476562 75.902344 236.757812 72.390625 236.796875 67.367188 C 236.832031 62.984375 233.65625 59.46875 228.855469 58.964844 Z M 221.796875 60.597656 C 227.941406 55.425781 238.011719 60.058594 237.300781 68.121094 C 236.851562 73.21875 232.257812 76.679688 227.21875 76.269531 C 223.898438 76 221.355469 73.914062 219.78125 71.628906 C 218.769531 73.109375 217.578125 74.355469 216 75.015625 C 209.808594 77.597656 203.535156 72.371094 204.027344 66.488281 C 204.539062 60.289062 212.132812 56.738281 217.636719 60.472656 C 218.617188 61.136719 218.9375 61.875 220.03125 62.855469 C 220.761719 61.757812 221.035156 61.238281 221.796875 60.597656 "/>
<path style=" stroke:none;fill-rule:evenodd;fill:rgb(100%,99.21875%,95.289612%);fill-opacity:1;" d="M 227.847656 66.488281 C 226.308594 66.296875 226.585938 68.691406 227.847656 68.746094 C 229.265625 68.8125 229.449219 66.6875 227.847656 66.488281 Z M 236.796875 67.367188 C 236.757812 72.390625 232.476562 75.902344 227.847656 75.769531 C 223.820312 75.652344 219.234375 72.652344 219.277344 67.242188 C 219.316406 62.085938 223.800781 58.441406 228.855469 58.96875 C 233.65625 59.46875 236.832031 62.984375 236.796875 67.367188 "/>
<path style=" stroke:none;fill-rule:evenodd;fill:rgb(100%,99.21875%,95.289612%);fill-opacity:1;" d="M 211.585938 66.488281 C 210.816406 67.964844 212.710938 68.992188 213.480469 67.867188 C 213.789062 66.507812 212.535156 65.820312 211.585938 66.488281 Z M 218.773438 68.246094 C 218.882812 69.320312 219.628906 70.363281 219.527344 71.128906 C 219.375 72.277344 216.863281 73.890625 216.125 74.261719 C 215.707031 74.472656 214.851562 74.808594 214.488281 74.890625 C 206.042969 76.773438 201.859375 66.746094 206.671875 61.851562 C 210.183594 58.277344 217.441406 58.972656 219.65625 63.355469 C 219.101562 64.878906 218.570312 66.300781 218.773438 68.246094 "/>
<path style=" stroke:none;fill-rule:evenodd;fill:rgb(0%,0%,0%);fill-opacity:1;" d="M 211.585938 66.492188 C 210.816406 67.964844 212.710938 68.992188 213.476562 67.867188 C 213.789062 66.507812 212.535156 65.820312 211.585938 66.492188 "/>
<path style=" stroke:none;fill-rule:evenodd;fill:rgb(0%,0%,0%);fill-opacity:1;" d="M 227.847656 66.488281 C 226.308594 66.296875 226.585938 68.6875 227.847656 68.746094 C 229.265625 68.8125 229.449219 66.6875 227.847656 66.488281 "/>
<path style=" stroke:none;fill-rule:evenodd;fill:rgb(79.998779%,61.569214%,49.01886%);fill-opacity:1;" d="M 195.078125 72.257812 C 195.789062 72.257812 196.503906 72.257812 197.21875 72.257812 C 197.0625 71.746094 196.28125 71.851562 196.210938 71.253906 C 197.363281 71.03125 198.171875 72.230469 198.730469 73.007812 C 199.679688 72.339844 199.742188 71.484375 199.613281 69.875 C 198.445312 69.03125 197.183594 68.28125 194.949219 68.496094 C 193.523438 69.128906 193.832031 71.671875 195.078125 72.257812 "/>
<path style=" stroke:none;fill-rule:evenodd;fill:rgb(0%,0%,0%);fill-opacity:1;" d="M 247.636719 74.011719 C 247.515625 74.550781 248.253906 74.230469 248.265625 74.640625 C 248.292969 75.167969 247.703125 75.082031 247.507812 75.390625 C 247.84375 76.238281 248.769531 75.277344 248.894531 74.765625 C 248.796875 74.484375 248.824219 74.085938 248.515625 74.011719 C 249.304688 73.335938 250.710938 73.269531 251.667969 72.757812 C 250.347656 72.277344 248.398438 73.125 247.636719 74.011719 "/>
<path style=" stroke:none;fill-rule:evenodd;fill:rgb(0%,0%,0%);fill-opacity:1;" d="M 221.039062 81.035156 C 219.214844 83.226562 216.113281 85.886719 217.386719 89.9375 C 218.851562 89.496094 219.273438 87.71875 219.78125 86.300781 C 220.375 84.632812 220.753906 82.792969 221.039062 81.035156 Z M 221.921875 77.398438 C 220.703125 77.675781 218.890625 77.5 217.636719 77.398438 C 217.335938 79.769531 217.195312 82.308594 217.007812 84.796875 C 218.304688 83.035156 219.320312 80.992188 221.417969 80.03125 C 221.492188 79.058594 221.847656 78.371094 221.921875 77.398438 Z M 223.8125 76.644531 C 223.753906 77.253906 222.898438 77.070312 222.554688 77.398438 C 222.464844 79.644531 221.730469 81.851562 221.167969 84.167969 C 220.605469 86.488281 220.046875 88.960938 218.773438 90.0625 C 217.328125 91.308594 216.433594 89.988281 216.25 88.558594 C 215.832031 85.226562 216.753906 80.519531 216.882812 77.273438 C 215.964844 77.222656 215.253906 76.96875 215.117188 76.144531 C 215.296875 76.113281 215.328125 75.9375 215.496094 75.894531 C 217.195312 77.40625 221.566406 76.691406 223.8125 76.644531 "/>
<path style=" stroke:none;fill-rule:evenodd;fill:rgb(84.709167%,38.038635%,38.038635%);fill-opacity:1;" d="M 221.921875 77.398438 C 220.703125 77.675781 218.890625 77.5 217.636719 77.398438 C 217.335938 79.769531 217.195312 82.308594 217.007812 84.796875 C 218.304688 83.035156 219.320312 80.992188 221.417969 80.03125 C 221.492188 79.058594 221.847656 78.371094 221.921875 77.398438 "/>
<path style=" stroke:none;fill-rule:evenodd;fill:rgb(19.999695%,19.60907%,26.669312%);fill-opacity:1;" d="M 251.164062 77.648438 C 250.503906 77.496094 249.378906 77.960938 248.265625 77.773438 C 248.214844 79.445312 247.355469 80.953125 247.382812 82.289062 C 247.996094 81.808594 248.03125 80.757812 248.644531 80.28125 C 249.097656 80.371094 248.777344 81.238281 249.019531 81.535156 C 249.832031 80.335938 250.476562 78.96875 251.164062 77.648438 "/>
<path style=" stroke:none;fill-rule:evenodd;fill:rgb(79.998779%,61.569214%,49.01886%);fill-opacity:1;" d="M 239.191406 83.667969 C 240.507812 83.851562 242.398438 83.734375 243.476562 83.792969 C 243.480469 81.871094 242.605469 78.34375 240.453125 78.902344 C 239.050781 79.265625 239.175781 81.613281 239.191406 83.667969 "/>
<path style=" stroke:none;fill-rule:evenodd;fill:rgb(79.998779%,61.569214%,49.01886%);fill-opacity:1;" d="M 203.648438 83.039062 C 204.878906 83.402344 206.285156 83.59375 207.933594 83.542969 C 208.097656 81.066406 207.828125 78.671875 205.914062 78.902344 C 204.355469 79.09375 204.054688 81.390625 203.648438 83.039062 "/>
<path style=" stroke:none;fill-rule:evenodd;fill:rgb(100%,59.999084%,59.999084%);fill-opacity:1;" d="M 221.039062 81.035156 C 219.214844 83.226562 216.113281 85.886719 217.386719 89.9375 C 218.851562 89.496094 219.273438 87.71875 219.78125 86.300781 C 220.375 84.632812 220.753906 82.792969 221.039062 81.035156 "/>
<path style=" stroke:none;fill-rule:evenodd;fill:rgb(86.669922%,86.669922%,86.669922%);fill-opacity:1;" d="M 209.824219 97.585938 C 209.253906 100.359375 209.050781 103.503906 208.816406 106.613281 C 217.570312 105.070312 230.074219 105.4375 238.183594 107.238281 C 238.335938 104.117188 237.820312 100.578125 237.300781 97.710938 C 240.425781 94.382812 243.703125 91.207031 243.601562 84.671875 C 242.339844 85.085938 240.441406 84.75 239.0625 84.542969 C 238.726562 87.136719 237.980469 89.316406 237.046875 91.316406 C 233.867188 94.09375 227.25 94.75 220.789062 94.953125 C 217.28125 95.058594 212.242188 94.625 210.832031 92.820312 C 209.25 90.792969 208.679688 87.492188 208.058594 84.417969 C 206.476562 84.40625 204.742188 84.542969 203.648438 84.042969 C 203.066406 90.679688 206.523438 94.390625 209.824219 97.585938 "/>
<path style=" stroke:none;fill-rule:evenodd;fill:rgb(84.709167%,38.038635%,38.038635%);fill-opacity:1;" d="M 208.6875 107.742188 C 208.835938 110.296875 208.496094 113.105469 208.6875 115.640625 C 208.816406 117.335938 209.640625 118.859375 209.066406 120.027344 C 210.367188 120.148438 211.113281 119.722656 211.839844 119.277344 C 212.398438 116.738281 212.980469 114.226562 213.351562 111.5 C 213.214844 110.882812 211.847656 112.027344 211.714844 111.125 C 212.511719 109.921875 214.347656 110.273438 215.746094 110.121094 C 221.929688 109.453125 229.675781 109.355469 235.410156 110.875 C 235.519531 112.023438 234.125 111.101562 233.769531 111.375 C 234.101562 114.183594 234.734375 116.6875 235.285156 119.277344 C 236.011719 119.722656 236.757812 120.148438 238.054688 120.027344 C 238.359375 119.6875 237.667969 119.582031 237.804688 119.023438 C 238.695312 116.066406 238.390625 111.917969 238.433594 108.117188 C 229.867188 106.492188 217.59375 106.097656 208.6875 107.742188 "/>
</g>
</svg>
